<?xml version="1.0" encoding="utf-8"?>
<!-- Generator: Adobe Illustrator 25.2.3, SVG Export Plug-In . SVG Version: 6.00 Build 0)  -->
<svg version="1.1" id="Calque_1" xmlns="http://www.w3.org/2000/svg" xmlns:xlink="http://www.w3.org/1999/xlink" x="0px" y="0px"
	 viewBox="0 0 413.8 132" style="enable-background:new 0 0 413.8 132;" xml:space="preserve">
<style type="text/css">
	.st0{fill:url(#path1883_1_);stroke:#C43BFF;stroke-width:2;stroke-miterlimit:12.2;}
	.st1{fill:url(#path1883-2_1_);stroke:#C43BFF;stroke-width:2;stroke-miterlimit:12.2;}
	.st2{fill:url(#path1883-2-2_1_);stroke:#C43BFF;stroke-width:2;stroke-miterlimit:12.2;}
</style>
<linearGradient id="path1883_1_" gradientUnits="userSpaceOnUse" x1="135.4396" y1="359.5318" x2="404.93" y2="359.5318" gradientTransform="matrix(1 0 0 1 -134.44 -326.668)">
	<stop  offset="0" style="stop-color:#C43BFF"/>
	<stop  offset="0.8184" style="stop-color:#811BD9"/>
</linearGradient>
<path id="path1883" class="st0" d="M270.5,64.7C195.9,52.5,171.1,36,46,44.3C18.1,46.2,2,34.8,1.1,26.7C-0.2,15.9,13.7,1.4,48,1
	C109.1,0.4,181.4,19.3,270.5,64.7z"/>
<linearGradient id="path1883-2_1_" gradientUnits="userSpaceOnUse" x1="-64.4184" y1="269.1488" x2="108.158" y2="269.1488" gradientTransform="matrix(-1 0 0 -1 302.34 347.156)">
	<stop  offset="0" style="stop-color:#C43BFF"/>
	<stop  offset="0.8184" style="stop-color:#811BD9"/>
</linearGradient>
<path id="path1883-2" class="st1" d="M194.2,57.4C242,65.3,257.8,76,337.9,70.6c17.9-1.2,28.2,6.2,28.8,11.4
	c0.8,7-8.1,16.4-30.1,16.6C297.6,99,251.2,86.8,194.2,57.4z"/>
<linearGradient id="path1883-2-2_1_" gradientUnits="userSpaceOnUse" x1="-110.4604" y1="236.7144" x2="62.117" y2="236.7144" gradientTransform="matrix(-1 0 0 -1 302.34 347.156)">
	<stop  offset="0" style="stop-color:#C43BFF"/>
	<stop  offset="0.8184" style="stop-color:#811BD9"/>
</linearGradient>
<path id="path1883-2-2" class="st2" d="M240.2,89.8C288,97.7,303.8,108.4,384,103c17.9-1.2,28.2,6.2,28.8,11.4
	c0.8,7-8.1,16.4-30.1,16.6C343.6,131.4,297.3,119.2,240.2,89.8z"/>
</svg>
