<svg id="Calque_1" data-name="Calque 1" xmlns="http://www.w3.org/2000/svg" xmlns:xlink="http://www.w3.org/1999/xlink" viewBox="0 0 413.8 132.037"><defs><style>.cls-1,.cls-2,.cls-3{stroke:#38f;stroke-miterlimit:12.2;stroke-width:2px;}.cls-1{fill:url(#Dégradé_sans_nom);}.cls-2{fill:url(#Dégradé_sans_nom_2);}.cls-3{fill:url(#Dégradé_sans_nom-2);}</style><linearGradient id="Dégradé_sans_nom" x1="135.44" y1="-209.532" x2="404.93" y2="-209.532" gradientTransform="matrix(1, 0, 0, -1, -134.44, -176.668)" gradientUnits="userSpaceOnUse"><stop offset="0" stop-color="#38f"/><stop offset="0.273" stop-color="#2b78e4"/><stop offset="1" stop-color="#154f9e"/></linearGradient><linearGradient id="Dégradé_sans_nom_2" x1="-78.418" y1="-135.147" x2="94.158" y2="-135.147" gradientTransform="matrix(-1, 0, 0, 1, 288.34, 213.156)" xlink:href="#Dégradé_sans_nom"/><linearGradient id="Dégradé_sans_nom-2" x1="-124.46" y1="-102.714" x2="48.117" y2="-102.714" gradientTransform="matrix(-1, 0, 0, 1, 288.34, 213.156)" xlink:href="#Dégradé_sans_nom"/></defs><path id="path1883" class="cls-1" d="M270.49,64.728C195.89,52.55,171.138,36.048,46,44.324,18.1,46.169,2.009,34.778,1.075,26.657-.162,15.885,13.749,1.355,48,1.014,109.052.4,181.425,19.329,270.49,64.728Z" transform="translate(0 0)"/><path id="path1883-2" class="cls-2" d="M194.182,57.414C241.955,65.284,257.8,75.951,337.943,70.6c17.857-1.193,28.17,6.17,28.767,11.418.793,6.963-8.116,16.353-30.051,16.573C297.564,98.99,251.218,86.756,194.182,57.414Z" transform="translate(0 0)"/><path id="path1883-2-2" data-name="path1883-2" class="cls-3" d="M240.223,89.847c47.773,7.87,63.623,18.537,143.762,13.19,17.857-1.194,28.17,6.169,28.767,11.417.793,6.963-8.117,16.353-30.051,16.573C343.606,131.423,297.259,119.189,240.223,89.847Z" transform="translate(0 0)"/></svg>