<svg id="Calque_1" data-name="Calque 1" xmlns="http://www.w3.org/2000/svg" xmlns:xlink="http://www.w3.org/1999/xlink" viewBox="0 0 323.536 147.877"><defs><style>.cls-1,.cls-2{stroke:#38f;stroke-miterlimit:12.2;stroke-width:2px;}.cls-1{fill:url(#Dégradé_sans_nom);}.cls-2{fill:url(#Dégradé_sans_nom_2);}</style><linearGradient id="Dégradé_sans_nom" x1="42.563" y1="110.01" x2="357.03" y2="110.01" gradientTransform="matrix(1, 0, 0, -1, -39.513, 148)" gradientUnits="userSpaceOnUse"><stop offset="0" stop-color="#38f"/><stop offset="0.273" stop-color="#2b78e4"/><stop offset="1" stop-color="#154f9e"/></linearGradient><linearGradient id="Dégradé_sans_nom_2" x1="-324.874" y1="122.131" x2="-10.406" y2="122.131" gradientTransform="matrix(-1, 0, 0, 1, -4.387, -12.242)" xlink:href="#Dégradé_sans_nom"/></defs><path id="path1883" class="cls-1" d="M317.517,74.98C230.476,61.137,201.693,41.7,55.463,52.678,22.863,55.126,4.156,41.7,3.128,32.028,1.765,19.2,18.125,1.765,58.137,1.053,129.448-.224,213.836,21.681,317.517,74.98Z" transform="translate(0 0)"/><path id="path1883-2" class="cls-2" d="M6.019,72.9c87.042,13.843,115.825,33.285,262.055,22.3,32.6-2.448,51.307,10.981,52.335,20.65,1.363,12.824-15,30.263-55.009,30.975C194.087,148.1,109.7,126.2,6.019,72.9Z" transform="translate(0 0)"/></svg>