<svg id="Calque_1" data-name="Calque 1" xmlns="http://www.w3.org/2000/svg" xmlns:xlink="http://www.w3.org/1999/xlink" viewBox="0 0 378.891 104.982"><defs><style>.cls-1,.cls-2,.cls-3{stroke:#38f;stroke-miterlimit:12.2;stroke-width:2px;}.cls-1{fill:url(#Dégradé_sans_nom);}.cls-2{fill:url(#Dégradé_sans_nom_2);}.cls-3{fill:url(#Dégradé_sans_nom-2);}</style><linearGradient id="Dégradé_sans_nom" x1="135.44" y1="-204.738" x2="395.245" y2="-204.738" gradientTransform="matrix(1, 0, 0, -1, -134.44, -176.668)" gradientUnits="userSpaceOnUse"><stop offset="0" stop-color="#38f"/><stop offset="0.273" stop-color="#2b78e4"/><stop offset="1" stop-color="#154f9e"/></linearGradient><linearGradient id="Dégradé_sans_nom_2" x1="-57.16" y1="-148.706" x2="101.101" y2="-148.706" gradientTransform="matrix(-1, 0, 0, 1, 288.34, 213.156)" xlink:href="#Dégradé_sans_nom"/><linearGradient id="Dégradé_sans_nom-2" x1="-89.551" y1="-122.706" x2="57.587" y2="-122.706" gradientTransform="matrix(-1, 0, 0, 1, 288.34, 213.156)" xlink:href="#Dégradé_sans_nom"/></defs><path id="path1883" class="cls-1" d="M260.805,55.141C188.886,44.8,165.023,30.776,44.383,37.807,17.485,39.374,1.973,29.7,1.072,22.8-.12,13.646,13.291,1.3,46.311,1.012,105.169.49,174.941,16.572,260.805,55.141Z" transform="translate(0 0)"/><path id="path1883-2" class="cls-2" d="M187.239,48.928c43.81,5.931,58.345,13.971,131.836,9.941,16.376-.9,25.833,4.65,26.381,8.606.727,5.247-7.443,12.325-27.559,12.491C282.046,80.264,239.543,71.043,187.239,48.928Z" transform="translate(0 0)"/><path id="path1883-2-2" data-name="path1883-2" class="cls-3" d="M230.753,76.918C271.484,82.089,285,89.1,353.323,85.584c15.225-.784,24.018,4.054,24.527,7.5.676,4.575-6.92,10.745-25.622,10.89C318.9,104.236,279.381,96.2,230.753,76.918Z" transform="translate(0 0)"/></svg>