<?xml version="1.0" encoding="UTF-8" standalone="no"?>
<svg
   xmlns:dc="http://purl.org/dc/elements/1.1/"
   xmlns:cc="http://creativecommons.org/ns#"
   xmlns:rdf="http://www.w3.org/1999/02/22-rdf-syntax-ns#"
   xmlns:svg="http://www.w3.org/2000/svg"
   xmlns="http://www.w3.org/2000/svg"
   xmlns:sodipodi="http://sodipodi.sourceforge.net/DTD/sodipodi-0.dtd"
   xmlns:inkscape="http://www.inkscape.org/namespaces/inkscape"
   data-name="Layer 1"
   viewBox="0 0 100 100"
   x="0px"
   y="0px"
   version="1.1"
   id="svg155"
   sodipodi:docname="noun_Community_627732.svg"
   width="100"
   height="100"
   inkscape:version="0.92.2 5c3e80d, 2017-08-06">
  <metadata
     id="metadata161">
    <rdf:RDF>
      <cc:Work
         rdf:about="">
        <dc:format>image/svg+xml</dc:format>
        <dc:type
           rdf:resource="http://purl.org/dc/dcmitype/StillImage" />
        <dc:title>Artboard 7</dc:title>
      </cc:Work>
    </rdf:RDF>
  </metadata>
  <defs
     id="defs159" />
  <sodipodi:namedview
     pagecolor="#ffffff"
     bordercolor="#666666"
     borderopacity="1"
     objecttolerance="10"
     gridtolerance="10"
     guidetolerance="10"
     inkscape:pageopacity="0"
     inkscape:pageshadow="2"
     inkscape:window-width="2566"
     inkscape:window-height="1399"
     id="namedview157"
     showgrid="false"
     inkscape:zoom="9.744"
     inkscape:cx="50"
     inkscape:cy="41.974548"
     inkscape:window-x="0"
     inkscape:window-y="0"
     inkscape:window-maximized="0"
     inkscape:current-layer="svg155" />
  <title
     id="title147">Artboard 7</title>
  <path
     d="m 35.004803,86.1593 v 4.586016 a 3.3248619,3.3248619 0 0 0 3.315307,3.315308 h 23.254926 a 3.3248619,3.3248619 0 0 0 3.315307,-3.315308 V 86.1593 a 14.780349,14.780349 0 0 0 -7.184759,-12.707087 10.64338,10.64338 0 1 0 -15.516022,0 A 14.780349,14.780349 0 0 0 35.004803,86.1593 Z M 45.294677,75.085981 a 1.4331301,1.4331301 0 0 0 0.267518,-2.503201 7.7771196,7.7771196 0 1 1 8.789865,0 1.4331301,1.4331301 0 0 0 0.267517,2.503201 11.933197,11.933197 0 0 1 7.41406,11.073319 v 4.586016 A 0.44904744,0.44904744 0 0 1 61.58459,91.194364 H 38.32011 A 0.44904744,0.44904744 0 0 1 37.871063,90.745316 V 86.1593 A 11.933197,11.933197 0 0 1 45.294677,75.085981 Z M 5.9982489,47.608099 H 29.205403 A 3.3248619,3.3248619 0 0 0 32.52071,44.292791 V 39.706775 A 14.780349,14.780349 0 0 0 25.335951,26.999688 10.64338,10.64338 0 1 0 9.8199293,26.990133 14.780349,14.780349 0 0 0 2.6351702,39.706775 v 4.586016 a 3.3153077,3.3153077 0 0 0 3.3630787,3.315308 z M 5.5492015,39.706775 a 11.933197,11.933197 0 0 1 7.3758425,-11.073319 1.4331301,1.4331301 0 0 0 0.267518,-2.503201 7.7771196,7.7771196 0 1 1 8.780311,0 1.4331301,1.4331301 0 0 0 0.267517,2.503201 11.933197,11.933197 0 0 1 7.41406,11.073319 v 4.586016 a 0.44904744,0.44904744 0 0 1 -0.449047,0.449048 H 5.9982489 A 0.44904744,0.44904744 0 0 1 5.5492015,44.292791 Z M 90.075217,26.990133 a 10.64338,10.64338 0 1 0 -15.516022,0 14.780349,14.780349 0 0 0 -7.18476,12.707088 v 4.586016 a 3.3248619,3.3248619 0 0 0 3.315308,3.315308 h 23.207154 a 3.3153077,3.3153077 0 0 0 3.315308,-3.315308 V 39.697221 A 14.780349,14.780349 0 0 0 90.075217,26.990133 Z m 4.318499,17.293104 a 0.44904744,0.44904744 0 0 1 -0.449048,0.449048 H 70.689743 a 0.44904744,0.44904744 0 0 1 -0.449047,-0.449048 v -4.586016 a 11.933197,11.933197 0 0 1 7.41406,-11.063765 1.4331301,1.4331301 0 0 0 0.267517,-2.503201 7.7771196,7.7771196 0 1 1 8.780311,0 1.4331301,1.4331301 0 0 0 0.267518,2.503201 11.933197,11.933197 0 0 1 7.41406,11.073319 z M 33.772311,72.162395 v 0 A 30.869623,30.869623 0 0 1 20.186237,53.350174 5.0637265,5.0637265 0 0 0 10.34541,55.710061 41.083064,41.083064 0 0 0 28.412404,80.742068 5.066252,5.066252 0 1 0 33.772311,72.143287 Z m -0.821662,5.455449 A 2.2452372,2.2452372 0 0 1 29.883751,78.315301 38.216804,38.216804 0 0 1 13.125683,55.041267 2.1974662,2.1974662 0 1 1 17.39641,54.018968 33.754992,33.754992 0 0 0 32.253193,74.589162 v 0 a 2.1974662,2.1974662 0 0 1 0.697456,3.028682 z M 32.797782,18.811737 a 5.0255097,5.0255097 0 0 0 3.821681,-0.219746 30.688093,30.688093 0 0 1 26.570232,0 5.0255097,5.0255097 0 0 0 2.197467,0.506372 5.0923891,5.0923891 0 0 0 4.557354,-2.86626 5.0637265,5.0637265 0 0 0 -2.359888,-6.75482 40.805992,40.805992 0 0 0 -35.350544,0 5.0637265,5.0637265 0 0 0 0.535036,9.344009 z m -0.41083,-5.503219 a 2.1783578,2.1783578 0 0 1 1.117841,-1.251601 37.939732,37.939732 0 0 1 32.876006,0 2.1974662,2.1974662 0 0 1 1.022299,2.93314 2.2452372,2.2452372 0 0 1 -2.93314,1.022299 33.554354,33.554354 0 0 0 -29.063879,0 2.1974662,2.1974662 0 0 1 -3.028682,-2.703838 z M 85.890477,49.614481 A 5.0637265,5.0637265 0 0 0 79.785343,53.350174 30.860069,30.860069 0 0 1 66.189715,72.162395 5.0662519,5.0662519 0 1 0 71.549621,80.761176 41.083064,41.083064 0 0 0 89.616615,55.72917 5.0732807,5.0732807 0 0 0 85.91914,49.604927 Z m 0.95542,5.436341 A 38.216804,38.216804 0 0 1 70.06872,78.315301 2.2452372,2.2452372 0 0 1 67.040038,77.617844 2.1974662,2.1974662 0 0 1 67.747049,74.589162 33.754992,33.754992 0 0 0 82.594278,54.018968 2.1974662,2.1974662 0 0 1 85.240791,52.394754 v 0 a 2.1974662,2.1974662 0 0 1 1.624214,2.646513 z"
     id="path149"
     inkscape:connector-curvature="0"
     style="stroke-width:0.95542008" />
</svg>
